<svg width="20" height="20" viewBox="0 0 20 20" fill="none" xmlns="http://www.w3.org/2000/svg">
<g clip-path="url(#clip0_15114_2048)">
<path d="M9.16683 7.49999H10.8335V4.99999H13.3335V3.33333H10.8335V0.833328H9.16683V3.33333H6.66683V4.99999H9.16683V7.49999ZM5.8335 15C4.91683 15 4.17516 15.75 4.17516 16.6667C4.17516 17.5833 4.91683 18.3333 5.8335 18.3333C6.75016 18.3333 7.50016 17.5833 7.50016 16.6667C7.50016 15.75 6.75016 15 5.8335 15ZM14.1668 15C13.2502 15 12.5085 15.75 12.5085 16.6667C12.5085 17.5833 13.2502 18.3333 14.1668 18.3333C15.0835 18.3333 15.8335 17.5833 15.8335 16.6667C15.8335 15.75 15.0835 15 14.1668 15ZM5.97516 12.2917L6.00016 12.1917L6.75016 10.8333H12.9585C13.5835 10.8333 14.1335 10.4917 14.4168 9.97499L17.6335 4.13333L16.1835 3.33333H16.1752L15.2585 4.99999L12.9585 9.16666H7.1085L7.00016 8.94166L5.1335 4.99999L4.34183 3.33333L3.5585 1.66666H0.833496V3.33333H2.50016L5.50016 9.65833L4.37516 11.7C4.24183 11.9333 4.16683 12.2083 4.16683 12.5C4.16683 13.4167 4.91683 14.1667 5.8335 14.1667H15.8335V12.5H6.1835C6.07516 12.5 5.97516 12.4083 5.97516 12.2917Z" fill="white"/>
</g>
<defs>
<clipPath id="clip0_15114_2048">
<rect width="20" height="20" fill="white"/>
</clipPath>
</defs>
</svg>
