<svg width="18" height="18" viewBox="0 0 18 18" fill="none" xmlns="http://www.w3.org/2000/svg">
<path d="M11.9084 7.02496C11.7584 4.69996 10.8167 2.43329 9.05002 0.666626C7.26669 2.44996 6.28335 4.71663 6.09169 7.02496C7.15835 7.59163 8.14169 8.32496 9.00002 9.21663C9.85835 8.33329 10.8417 7.59996 11.9084 7.02496ZM6.49169 9.23329C6.37502 9.14996 6.24169 9.07496 6.11669 8.99163C6.24169 9.08329 6.37502 9.14996 6.49169 9.23329ZM11.8417 9.02496C11.7334 9.09996 11.6167 9.15829 11.5084 9.24163C11.6167 9.15829 11.7334 9.09996 11.8417 9.02496ZM9.00002 11.875C7.20835 9.14163 4.15002 7.33329 0.666687 7.33329C0.666687 11.7666 3.46669 15.5166 7.35835 16.9083C7.88335 17.1 8.43335 17.2416 9.00002 17.3333C9.56669 17.2333 10.1084 17.0916 10.6417 16.9083C14.5334 15.5166 17.3334 11.7666 17.3334 7.33329C13.85 7.33329 10.7917 9.14163 9.00002 11.875Z" fill="#323232"/>
</svg>
