<svg width="16" height="16" viewBox="0 0 16 16" fill="none" xmlns="http://www.w3.org/2000/svg">
<path d="M8.93917 10.1333L10.1308 8.94161L15.4975 14.3108L14.3083 15.4999L8.93917 10.1333ZM12.5167 5.35828L14.9 2.97494C11.6083 -0.316723 6.275 -0.325056 2.98334 2.95828C6.25834 1.87494 9.90834 2.74994 12.5167 5.35828ZM2.95834 2.98328C-0.324995 6.27494 -0.316662 11.6083 2.975 14.8999L5.35834 12.5166C2.75 9.90828 1.875 6.25828 2.95834 2.98328ZM2.975 2.96661L2.96667 2.97494C2.65001 5.48328 3.94167 8.70828 6.55 11.3249L11.325 6.54994C8.71667 3.94161 5.48334 2.64994 2.975 2.96661Z" fill="#323232"/>
</svg>
