<svg width="20" height="20" viewBox="0 0 20 20" fill="none" xmlns="http://www.w3.org/2000/svg">
<g clip-path="url(#clip0_15908_3469)">
<path d="M9.16665 7.50003H10.8333V5.00003H13.3333V3.33336H10.8333V0.833359H9.16665V3.33336H6.66665V5.00003H9.16665V7.50003ZM5.83331 15C4.91665 15 4.17498 15.75 4.17498 16.6667C4.17498 17.5834 4.91665 18.3334 5.83331 18.3334C6.74998 18.3334 7.49998 17.5834 7.49998 16.6667C7.49998 15.75 6.74998 15 5.83331 15ZM14.1666 15C13.25 15 12.5083 15.75 12.5083 16.6667C12.5083 17.5834 13.25 18.3334 14.1666 18.3334C15.0833 18.3334 15.8333 17.5834 15.8333 16.6667C15.8333 15.75 15.0833 15 14.1666 15ZM5.97498 12.2917L5.99998 12.1917L6.74998 10.8334H12.9583C13.5833 10.8334 14.1333 10.4917 14.4166 9.97503L17.6333 4.13336L16.1833 3.33336H16.175L15.2583 5.00003L12.9583 9.16669H7.10831L6.99998 8.94169L5.13331 5.00003L4.34165 3.33336L3.55831 1.66669H0.833313V3.33336H2.49998L5.49998 9.65836L4.37498 11.7C4.24165 11.9334 4.16665 12.2084 4.16665 12.5C4.16665 13.4167 4.91665 14.1667 5.83331 14.1667H15.8333V12.5H6.18331C6.07498 12.5 5.97498 12.4084 5.97498 12.2917Z" fill="#1D2734"/>
</g>
<defs>
<clipPath id="clip0_15908_3469">
<rect width="20" height="20" fill="white"/>
</clipPath>
</defs>
</svg>
